{
    "asset" : {
        "copyright" : "Julian Frank",
        "generator" : "Khronos glTF Blender I/O v1.7.33",
        "version" : "2.0"
    },
    "scene" : 0,
    "scenes" : [
        {
            "name" : "Scene",
            "nodes" : [
                0,
                1,
                2,
                3,
                4,
                5
            ]
        }
    ],
    "nodes" : [
        {
            "mesh" : 0,
            "name" : "xCone",
            "rotation" : [
                0,
                0,
                -0.7071068286895752,
                0.7071068286895752
            ],
            "scale" : [
                0.10000000149011612,
                1,
                0.10000000149011612
            ]
        },
        {
            "mesh" : 1,
            "name" : "yCone",
            "rotation" : [
                -0.7071068286895752,
                0,
                0,
                0.7071068286895752
            ],
            "scale" : [
                0.10000000149011612,
                1,
                0.10000000149011612
            ]
        },
        {
            "mesh" : 2,
            "name" : "zCone",
            "scale" : [
                0.10000000149011612,
                1,
                0.10000000149011612
            ]
        },
        {
            "mesh" : 3,
            "name" : "textX",
            "rotation" : [
                0.7071068286895752,
                0,
                0,
                0.7071068286895752
            ],
            "translation" : [
                2,
                0,
                0
            ]
        },
        {
            "mesh" : 4,
            "name" : "textY",
            "rotation" : [
                0.7071068286895752,
                0,
                0,
                0.7071068286895752
            ],
            "translation" : [
                0,
                0,
                -2
            ]
        },
        {
            "mesh" : 5,
            "name" : "textZ",
            "rotation" : [
                0.7071068286895752,
                0,
                0,
                0.7071068286895752
            ],
            "translation" : [
                0,
                2,
                0
            ]
        }
    ],
    "meshes" : [
        {
            "name" : "Cone.001",
            "primitives" : [
                {
                    "attributes" : {
                        "POSITION" : 0,
                        "NORMAL" : 1,
                        "TEXCOORD_0" : 2
                    },
                    "indices" : 3
                }
            ]
        },
        {
            "name" : "Cone.002",
            "primitives" : [
                {
                    "attributes" : {
                        "POSITION" : 4,
                        "NORMAL" : 5,
                        "TEXCOORD_0" : 6
                    },
                    "indices" : 3
                }
            ]
        },
        {
            "name" : "Cone.003",
            "primitives" : [
                {
                    "attributes" : {
                        "POSITION" : 7,
                        "NORMAL" : 8,
                        "TEXCOORD_0" : 9
                    },
                    "indices" : 3
                }
            ]
        },
        {
            "name" : "X",
            "primitives" : [
                {
                    "attributes" : {
                        "POSITION" : 10,
                        "NORMAL" : 11,
                        "TEXCOORD_0" : 12
                    },
                    "indices" : 13
                }
            ]
        },
        {
            "name" : "Y",
            "primitives" : [
                {
                    "attributes" : {
                        "POSITION" : 14,
                        "NORMAL" : 15,
                        "TEXCOORD_0" : 16
                    },
                    "indices" : 17
                }
            ]
        },
        {
            "name" : "Z",
            "primitives" : [
                {
                    "attributes" : {
                        "POSITION" : 18,
                        "NORMAL" : 19,
                        "TEXCOORD_0" : 20
                    },
                    "indices" : 21
                }
            ]
        }
    ],
    "accessors" : [
        {
            "bufferView" : 0,
            "componentType" : 5126,
            "count" : 128,
            "max" : [
                1,
                1.9908568859100342,
                1
            ],
            "min" : [
                -1,
                -0.00914311408996582,
                -1
            ],
            "type" : "VEC3"
        },
        {
            "bufferView" : 1,
            "componentType" : 5126,
            "count" : 128,
            "type" : "VEC3"
        },
        {
            "bufferView" : 2,
            "componentType" : 5126,
            "count" : 128,
            "type" : "VEC2"
        },
        {
            "bufferView" : 3,
            "componentType" : 5123,
            "count" : 186,
            "type" : "SCALAR"
        },
        {
            "bufferView" : 4,
            "componentType" : 5126,
            "count" : 128,
            "max" : [
                1,
                1.9908568859100342,
                1
            ],
            "min" : [
                -1,
                -0.00914311408996582,
                -1
            ],
            "type" : "VEC3"
        },
        {
            "bufferView" : 5,
            "componentType" : 5126,
            "count" : 128,
            "type" : "VEC3"
        },
        {
            "bufferView" : 6,
            "componentType" : 5126,
            "count" : 128,
            "type" : "VEC2"
        },
        {
            "bufferView" : 7,
            "componentType" : 5126,
            "count" : 128,
            "max" : [
                1,
                1.9908568859100342,
                1
            ],
            "min" : [
                -1,
                -0.00914311408996582,
                -1
            ],
            "type" : "VEC3"
        },
        {
            "bufferView" : 8,
            "componentType" : 5126,
            "count" : 128,
            "type" : "VEC3"
        },
        {
            "bufferView" : 9,
            "componentType" : 5126,
            "count" : 128,
            "type" : "VEC2"
        },
        {
            "bufferView" : 10,
            "componentType" : 5126,
            "count" : 15,
            "max" : [
                0.706000030040741,
                0,
                0
            ],
            "min" : [
                0.0020000000949949026,
                0,
                -0.6820000410079956
            ],
            "type" : "VEC3"
        },
        {
            "bufferView" : 11,
            "componentType" : 5126,
            "count" : 15,
            "type" : "VEC3"
        },
        {
            "bufferView" : 12,
            "componentType" : 5126,
            "count" : 15,
            "type" : "VEC2"
        },
        {
            "bufferView" : 13,
            "componentType" : 5123,
            "count" : 30,
            "type" : "SCALAR"
        },
        {
            "bufferView" : 14,
            "componentType" : 5126,
            "count" : 9,
            "max" : [
                0.6040000319480896,
                0,
                0
            ],
            "min" : [
                0,
                0,
                -0.6820000410079956
            ],
            "type" : "VEC3"
        },
        {
            "bufferView" : 15,
            "componentType" : 5126,
            "count" : 9,
            "type" : "VEC3"
        },
        {
            "bufferView" : 16,
            "componentType" : 5126,
            "count" : 9,
            "type" : "VEC2"
        },
        {
            "bufferView" : 17,
            "componentType" : 5123,
            "count" : 21,
            "type" : "SCALAR"
        },
        {
            "bufferView" : 18,
            "componentType" : 5126,
            "count" : 8,
            "max" : [
                0.6310000419616699,
                0,
                0
            ],
            "min" : [
                0.01600000075995922,
                0,
                -0.6820000410079956
            ],
            "type" : "VEC3"
        },
        {
            "bufferView" : 19,
            "componentType" : 5126,
            "count" : 8,
            "type" : "VEC3"
        },
        {
            "bufferView" : 20,
            "componentType" : 5126,
            "count" : 8,
            "type" : "VEC2"
        },
        {
            "bufferView" : 21,
            "componentType" : 5123,
            "count" : 18,
            "type" : "SCALAR"
        }
    ],
    "bufferViews" : [
        {
            "buffer" : 0,
            "byteLength" : 1536,
            "byteOffset" : 0
        },
        {
            "buffer" : 0,
            "byteLength" : 1536,
            "byteOffset" : 1536
        },
        {
            "buffer" : 0,
            "byteLength" : 1024,
            "byteOffset" : 3072
        },
        {
            "buffer" : 0,
            "byteLength" : 372,
            "byteOffset" : 4096
        },
        {
            "buffer" : 0,
            "byteLength" : 1536,
            "byteOffset" : 4468
        },
        {
            "buffer" : 0,
            "byteLength" : 1536,
            "byteOffset" : 6004
        },
        {
            "buffer" : 0,
            "byteLength" : 1024,
            "byteOffset" : 7540
        },
        {
            "buffer" : 0,
            "byteLength" : 1536,
            "byteOffset" : 8564
        },
        {
            "buffer" : 0,
            "byteLength" : 1536,
            "byteOffset" : 10100
        },
        {
            "buffer" : 0,
            "byteLength" : 1024,
            "byteOffset" : 11636
        },
        {
            "buffer" : 0,
            "byteLength" : 180,
            "byteOffset" : 12660
        },
        {
            "buffer" : 0,
            "byteLength" : 180,
            "byteOffset" : 12840
        },
        {
            "buffer" : 0,
            "byteLength" : 120,
            "byteOffset" : 13020
        },
        {
            "buffer" : 0,
            "byteLength" : 60,
            "byteOffset" : 13140
        },
        {
            "buffer" : 0,
            "byteLength" : 108,
            "byteOffset" : 13200
        },
        {
            "buffer" : 0,
            "byteLength" : 108,
            "byteOffset" : 13308
        },
        {
            "buffer" : 0,
            "byteLength" : 72,
            "byteOffset" : 13416
        },
        {
            "buffer" : 0,
            "byteLength" : 42,
            "byteOffset" : 13488
        },
        {
            "buffer" : 0,
            "byteLength" : 96,
            "byteOffset" : 13532
        },
        {
            "buffer" : 0,
            "byteLength" : 96,
            "byteOffset" : 13628
        },
        {
            "buffer" : 0,
            "byteLength" : 64,
            "byteOffset" : 13724
        },
        {
            "buffer" : 0,
            "byteLength" : 36,
            "byteOffset" : 13788
        }
    ],
    "buffers" : [
        {
            "byteLength" : 13824,
            "uri" : "data:application/octet-stream;base64,"
        }
    ]
}
